<?xml version="1.0" encoding="UTF-8"?><svg id="Layer_1" xmlns="http://www.w3.org/2000/svg" viewBox="0 0 72 72"><defs><style>.cls-1{fill:#c45752;}</style></defs><g><path class="cls-1" d="m11.89,29.72c.51.22,1.1.1,1.5-.29l16.26-15.96h8.31l-23.45,23.02h.19,0s28.94,0,28.94,0l17.32-17.4-.06-10.54H11.05v19.9c0,.55.33,1.05.84,1.26Zm6.87,5.04l23.45-23.02h-13.27l-16.14,15.83V10.31h46.37s.04,8.08.04,8.08l-16.3,16.37h-24.15Z"/><path class="cls-1" d="m43.74,38.4l-.11-.11H14.5s23.45,23.02,23.45,23.02h-8.31l-16.26-15.96c-.4-.39-.98-.51-1.5-.29-.51.21-.84.71-.84,1.26v19.89h49.84s.06-10.53.06-10.53l-17.21-17.29Zm-30.93,8.82l16.13,15.83h13.27l-23.46-23.02h24.15l16.3,16.37-.04,8.09H12.79s.02-17.27.02-17.27Z"/></g><path class="cls-1" d="m23.55,46.22l-.17.03-.17-.52c-.13.04-.24.08-.34.13h0s-.08.02-.26.08c-2.33.83-4.29,1.58-5.99,2.3l-.4.17c-.19.08-.26.11-.64.28l.41.91c.36-.16.42-.19.6-.26l.42-.17c1.68-.71,3.62-1.46,5.93-2.28.1-.04.21-.07.3-.11h0s.3-.09.3-.09l-.04-.11c.06-.09.08-.2.06-.35Z"/><path class="cls-1" d="m61.41,40.1c-.75-2.67-10.27-1.33-15.87-.3l-.41.07c-.09.01-.1.02-.53.1l.2.98c.4-.08.41-.08.49-.1l.43-.07c10.36-1.91,14.48-1.3,14.73-.42.16.59-1.49,2.52-8.88,5.63l-.12.05c-.52.21-1.05.43-1.62.65-4.26,1.69-9.27,3.35-14.5,4.78-1.21.33-2.4.65-3.58.94l-.25.06c-.58.15-1.15.29-1.73.42-2.4.57-4.68,1.06-6.79,1.45l-2.09.37c-3.21.53-5.94.83-8.09.89-.62.02-1.19.02-1.71,0-2.07-.08-2.91-.49-3-.82-.03-.09-.15-.94,3.23-2.89l.31-.18c.23-.14.32-.19.79-.42l-.45-.89c-.5.25-.6.31-.85.46l-.3.18c-2.83,1.63-4,2.91-3.69,4.02.25.96,1.54,1.47,3.92,1.56.27.01.56.02.86.02s.61,0,.93-.02c2.2-.06,4.97-.37,8.23-.91l2.12-.37c2.12-.4,4.42-.89,6.83-1.46.58-.13,1.16-.28,1.75-.43l.25-.06c1.18-.29,2.39-.61,3.6-.94,5.26-1.45,10.31-3.11,14.59-4.81.57-.21,1.11-.44,1.64-.65l.13-.05c6.74-2.84,9.92-5.13,9.46-6.82Z"/></svg>