<?xml version="1.0" encoding="UTF-8"?><svg id="Layer_1" xmlns="http://www.w3.org/2000/svg" viewBox="0 0 72 72"><defs><style>.cls-1{fill:#c45752;}</style></defs><g><path class="cls-1" d="m12.5,7.51v20.26c0,.56.33,1.06.85,1.27.52.21,1.11.1,1.5-.3L31.11,12.49h8.31l-18.18,18.18.13,29.56L62.41,18.22l-.06-10.72H12.5Zm10.49,23.89l20.65-20.65h-13.26L14.25,26.86V9.26h46.36s.04,8.25.04,8.25L23.1,55.95l-.1-24.56Z"/><path class="cls-1" d="m19.29,65.13v-28.39h-6.87c-.97,0-1.76.79-1.76,1.76v27.1h37.51l11.21-11.21h-29.34l-10.75,10.75Zm-6.87-26.64h5.12v25.36h-5.13v-25.36Zm42.75,17.65l-7.71,7.71h-24.39l7.71-7.71h24.39Z"/></g><path class="cls-1" d="m29.84,21.85l-.08-.04c-1.86-.93-3.74-1.81-5.59-2.63l-.94-.41-.39.92.94.41c1.86.82,3.76,1.71,5.63,2.65l.12.05h0c.29.14.34.17.52.26l.33.17.45-.89-.33-.17c-.21-.11-.25-.13-.65-.32Z"/><path class="cls-1" d="m48.28,32.57l-.3-.2c-.15-.1-.18-.12-.54-.37l-.55.83c.35.23.38.25.53.36l.42.28c6.98,4.85,8.97,7.62,8.6,8.31-.42.79-4.46.5-13.85-3.51-.56-.24-1.13-.49-1.71-.75-3.27-1.46-6.72-3.17-10.26-5.07-1.98-1.07-3.89-2.14-5.66-3.19-.25-.15-.5-.3-.74-.45-.27-.16-.54-.32-.8-.48-1.76-1.06-3.46-2.15-5.05-3.23-.51-.34-.99-.68-1.46-1-.84-.59-1.62-1.15-2.34-1.7-.63-.48-1.2-.94-1.74-1.36-3.79-3.11-4.43-4.63-4.21-5.04.04-.08.49-.72,3.78.01.23.05.3.06.35.07.06.01.06.01.4.11l.28-.96c-.43-.12-.44-.12-.51-.13-.04,0-.1-.02-.3-.06-2.82-.62-4.37-.47-4.88.49-.24.45-.98,1.82,4.46,6.29.54.43,1.13.89,1.76,1.38.73.55,1.53,1.13,2.37,1.72.47.33.97.67,1.48,1.02,1.61,1.09,3.32,2.18,5.09,3.25.27.17.54.33.81.49.24.15.49.29.74.45,1.79,1.05,3.71,2.13,5.7,3.21,3.56,1.92,7.03,3.63,10.32,5.11.58.26,1.17.51,1.73.75,3.83,1.64,9.73,3.91,12.96,3.91,1.07,0,1.84-.25,2.16-.84,1.12-2.07-4.29-6.41-9.03-9.69Z"/></svg>