<?xml version="1.0" encoding="UTF-8"?><svg id="Layer_1" xmlns="http://www.w3.org/2000/svg" viewBox="0 0 72 72"><defs><style>.cls-1{fill:#c45752;}</style></defs><g><path class="cls-1" d="m38.35,65.17h23.6s0-23.58,0-23.58l-23.6,23.58Zm4.23-1.75l17.62-17.62v17.62h-17.62Z"/><path class="cls-1" d="m56.27,8.32H10.71v20.28c0,.62.37,1.17.94,1.41.57.24,1.22.11,1.66-.33L29.32,13.46h4.92v40.97h-12.94l-10.83,10.83h25.08l20.73-20.73V8.32ZM14.7,63.51l7.33-7.33h13.96V11.71h-7.39L12.46,28.06V10.08h42.06s0,31.94,0,31.94v1.79s-19.69,19.7-19.69,19.7H14.7Z"/></g><path class="cls-1" d="m56.13,21.31l-.33.09c-.13.04-.16.04-.6.2l.33.94c.38-.13.4-.14.52-.17l.36-.1c4.35-1.31,4.94-.55,4.99-.46.27.47-.56,2.33-5.44,6.3-.55.45-1.13.9-1.75,1.38-3.9,2.98-8.85,6.23-14.32,9.38-1.41.81-2.79,1.59-4.14,2.32l-1.75.93c-12.36,6.47-19.03,7.91-19.65,6.84-.78-1.34,5.94-7.9,20.14-16.28l1.3-.75-.52-.86-1.29.76c-11.03,6.51-22.14,14.81-20.49,17.64.32.55,1.03.79,2,.79,4.86,0,16.34-5.86,18.98-7.25l1.76-.93c1.36-.74,2.76-1.52,4.17-2.34,5.5-3.18,10.49-6.45,14.43-9.46.62-.48,1.22-.95,1.77-1.4,6.84-5.56,5.97-7.08,5.68-7.58-.61-1.06-2.62-1.06-6.14,0Z"/></svg>