<svg width="57" height="40" viewBox="0 0 57 40" fill="none" xmlns="http://www.w3.org/2000/svg">
<path d="M10 2.18945V18H6.39648L4.25781 10.8125V18H0.820312V2.18945H4.25781L6.5625 9.30859V2.18945H10ZM21.9547 11.4473C21.9547 13.0358 21.9156 14.1621 21.8375 14.8262C21.7659 15.4837 21.5315 16.0859 21.1344 16.6328C20.7437 17.1797 20.2132 17.5996 19.5426 17.8926C18.872 18.1855 18.0908 18.332 17.1988 18.332C16.3525 18.332 15.5908 18.1953 14.9137 17.9219C14.2431 17.6419 13.7027 17.2253 13.2926 16.6719C12.8824 16.1185 12.6383 15.5163 12.5602 14.8652C12.482 14.2142 12.443 13.0749 12.443 11.4473V8.74219C12.443 7.15365 12.4788 6.0306 12.5504 5.37305C12.6285 4.70898 12.8629 4.10352 13.2535 3.55664C13.6507 3.00977 14.1845 2.58984 14.8551 2.29688C15.5257 2.00391 16.3069 1.85742 17.1988 1.85742C18.0452 1.85742 18.8036 1.9974 19.4742 2.27734C20.1513 2.55078 20.6949 2.96419 21.1051 3.51758C21.5152 4.07096 21.7594 4.67318 21.8375 5.32422C21.9156 5.97526 21.9547 7.11458 21.9547 8.74219V11.4473ZM17.8434 6.25195C17.8434 5.51628 17.801 5.04753 17.7164 4.8457C17.6383 4.63737 17.4723 4.5332 17.2184 4.5332C17.0035 4.5332 16.8375 4.61784 16.7203 4.78711C16.6096 4.94987 16.5543 5.43815 16.5543 6.25195V13.6348C16.5543 14.5527 16.5901 15.1191 16.6617 15.334C16.7398 15.5488 16.9156 15.6562 17.1891 15.6562C17.469 15.6562 17.648 15.5326 17.7262 15.2852C17.8043 15.0378 17.8434 14.4486 17.8434 13.5176V6.25195ZM26.9074 14.7773V18H23.9289V14.7773H26.9074Z" fill="#3F3F3F"/>
<rect y="24" width="28" height="6" rx="1" fill="#3F3F3F"/>
<path d="M50.4766 17.5078C51.9141 17.9922 52.9844 18.7891 53.6875 19.8984C54.3906 20.9922 54.7422 23.5703 54.7422 27.6328C54.7422 30.6484 54.3984 32.9922 53.7109 34.6641C53.0234 36.3203 51.8359 37.5859 50.1484 38.4609C48.4609 39.3203 46.2969 39.75 43.6562 39.75C40.6562 39.75 38.2969 39.25 36.5781 38.25C34.875 37.2344 33.75 36 33.2031 34.5469C32.6719 33.0781 32.4062 30.5391 32.4062 26.9297V23.9297H41.875V30.0938C41.875 31.7344 41.9688 32.7812 42.1562 33.2344C42.3594 33.6719 42.7969 33.8906 43.4688 33.8906C44.2031 33.8906 44.6875 33.6094 44.9219 33.0469C45.1562 32.4844 45.2734 31.0156 45.2734 28.6406V26.0156C45.2734 24.5625 45.1094 23.5 44.7812 22.8281C44.4531 22.1562 43.9688 21.7188 43.3281 21.5156C42.6875 21.2969 41.4453 21.1719 39.6016 21.1406V15.6328C41.8516 15.6328 43.2422 15.5469 43.7734 15.375C44.3047 15.2031 44.6875 14.8281 44.9219 14.25C45.1562 13.6719 45.2734 12.7656 45.2734 11.5312V9.42188C45.2734 8.09375 45.1328 7.21875 44.8516 6.79688C44.5859 6.375 44.1641 6.16406 43.5859 6.16406C42.9297 6.16406 42.4766 6.39063 42.2266 6.84375C41.9922 7.28125 41.875 8.22656 41.875 9.67969V12.7969H32.4062V9.5625C32.4062 5.9375 33.2344 3.49219 34.8906 2.22656C36.5469 0.945312 39.1797 0.304688 42.7891 0.304688C47.3047 0.304688 50.3672 1.1875 51.9766 2.95312C53.5859 4.71875 54.3906 7.17188 54.3906 10.3125C54.3906 12.4375 54.1016 13.9766 53.5234 14.9297C52.9453 15.8672 51.9297 16.7266 50.4766 17.5078Z" fill="#3F3F3F"/>
</svg>
