<svg width="56" height="39" viewBox="0 0 56 39" fill="none" xmlns="http://www.w3.org/2000/svg">
<path d="M10 2.18945V18H6.39648L4.25781 10.8125V18H0.820312V2.18945H4.25781L6.5625 9.30859V2.18945H10ZM21.9547 11.4473C21.9547 13.0358 21.9156 14.1621 21.8375 14.8262C21.7659 15.4837 21.5315 16.0859 21.1344 16.6328C20.7437 17.1797 20.2132 17.5996 19.5426 17.8926C18.872 18.1855 18.0908 18.332 17.1988 18.332C16.3525 18.332 15.5908 18.1953 14.9137 17.9219C14.2431 17.6419 13.7027 17.2253 13.2926 16.6719C12.8824 16.1185 12.6383 15.5163 12.5602 14.8652C12.482 14.2142 12.443 13.0749 12.443 11.4473V8.74219C12.443 7.15365 12.4788 6.0306 12.5504 5.37305C12.6285 4.70898 12.8629 4.10352 13.2535 3.55664C13.6507 3.00977 14.1845 2.58984 14.8551 2.29688C15.5257 2.00391 16.3069 1.85742 17.1988 1.85742C18.0452 1.85742 18.8036 1.9974 19.4742 2.27734C20.1513 2.55078 20.6949 2.96419 21.1051 3.51758C21.5152 4.07096 21.7594 4.67318 21.8375 5.32422C21.9156 5.97526 21.9547 7.11458 21.9547 8.74219V11.4473ZM17.8434 6.25195C17.8434 5.51628 17.801 5.04753 17.7164 4.8457C17.6383 4.63737 17.4723 4.5332 17.2184 4.5332C17.0035 4.5332 16.8375 4.61784 16.7203 4.78711C16.6096 4.94987 16.5543 5.43815 16.5543 6.25195V13.6348C16.5543 14.5527 16.5901 15.1191 16.6617 15.334C16.7398 15.5488 16.9156 15.6562 17.1891 15.6562C17.469 15.6562 17.648 15.5326 17.7262 15.2852C17.8043 15.0378 17.8434 14.4486 17.8434 13.5176V6.25195ZM26.9074 14.7773V18H23.9289V14.7773H26.9074Z" fill="white"/>
<rect y="24" width="28" height="6" rx="1" fill="#D9D9D9"/>
<path d="M53.1016 32.5312V39H32.2656V33.5859C38.4375 23.4922 42.1016 17.25 43.2578 14.8594C44.4297 12.4531 45.0156 10.5781 45.0156 9.23438C45.0156 8.20312 44.8359 7.4375 44.4766 6.9375C44.1328 6.42188 43.6016 6.16406 42.8828 6.16406C42.1641 6.16406 41.625 6.44531 41.2656 7.00781C40.9219 7.57031 40.75 8.6875 40.75 10.3594V13.9688H32.2656V12.5859C32.2656 10.4609 32.375 8.78906 32.5938 7.57031C32.8125 6.33594 33.3516 5.125 34.2109 3.9375C35.0703 2.75 36.1875 1.85156 37.5625 1.24219C38.9375 0.632812 40.5859 0.328125 42.5078 0.328125C46.2734 0.328125 49.1172 1.26562 51.0391 3.14062C52.9766 5 53.9453 7.35938 53.9453 10.2188C53.9453 12.3906 53.3984 14.6875 52.3047 17.1094C51.2266 19.5312 48.0312 24.6719 42.7188 32.5312H53.1016Z" fill="white"/>
</svg>
