<svg width="55" height="36" viewBox="0 0 55 36" fill="none" xmlns="http://www.w3.org/2000/svg">
<path d="M10 0.689453V16.5H6.39648L4.25781 9.3125V16.5H0.820312V0.689453H4.25781L6.5625 7.80859V0.689453H10ZM21.9547 9.94727C21.9547 11.5358 21.9156 12.6621 21.8375 13.3262C21.7659 13.9837 21.5315 14.5859 21.1344 15.1328C20.7437 15.6797 20.2132 16.0996 19.5426 16.3926C18.872 16.6855 18.0908 16.832 17.1988 16.832C16.3525 16.832 15.5908 16.6953 14.9137 16.4219C14.2431 16.1419 13.7027 15.7253 13.2926 15.1719C12.8824 14.6185 12.6383 14.0163 12.5602 13.3652C12.482 12.7142 12.443 11.5749 12.443 9.94727V7.24219C12.443 5.65365 12.4788 4.5306 12.5504 3.87305C12.6285 3.20898 12.8629 2.60352 13.2535 2.05664C13.6507 1.50977 14.1845 1.08984 14.8551 0.796875C15.5257 0.503906 16.3069 0.357422 17.1988 0.357422C18.0452 0.357422 18.8036 0.497396 19.4742 0.777344C20.1513 1.05078 20.6949 1.46419 21.1051 2.01758C21.5152 2.57096 21.7594 3.17318 21.8375 3.82422C21.9156 4.47526 21.9547 5.61458 21.9547 7.24219V9.94727ZM17.8434 4.75195C17.8434 4.01628 17.801 3.54753 17.7164 3.3457C17.6383 3.13737 17.4723 3.0332 17.2184 3.0332C17.0035 3.0332 16.8375 3.11784 16.7203 3.28711C16.6096 3.44987 16.5543 3.93815 16.5543 4.75195V12.1348C16.5543 13.0527 16.5901 13.6191 16.6617 13.834C16.7398 14.0488 16.9156 14.1562 17.1891 14.1562C17.469 14.1562 17.648 14.0326 17.7262 13.7852C17.8043 13.5378 17.8434 12.9486 17.8434 12.0176V4.75195ZM26.9074 13.2773V16.5H23.9289V13.2773H26.9074Z" fill="#9F9F9F"/>
<rect y="22.5" width="28" height="6" rx="1" fill="#9F9F9F"/>
<path d="M52.5 2.87891V23.543H54.7461V28.9336H52.5V34.5H44.6094V28.9336H35.2344V23.543L42.0508 2.87891H52.5ZM44.6094 23.543V10.0859L41.1328 23.543H44.6094Z" fill="#9F9F9F"/>
</svg>
