<svg width="57" height="39" viewBox="0 0 57 39" fill="none" xmlns="http://www.w3.org/2000/svg">
<path d="M10 1.18945V17H6.39648L4.25781 9.8125V17H0.820312V1.18945H4.25781L6.5625 8.30859V1.18945H10ZM21.9547 10.4473C21.9547 12.0358 21.9156 13.1621 21.8375 13.8262C21.7659 14.4837 21.5315 15.0859 21.1344 15.6328C20.7437 16.1797 20.2132 16.5996 19.5426 16.8926C18.872 17.1855 18.0908 17.332 17.1988 17.332C16.3525 17.332 15.5908 17.1953 14.9137 16.9219C14.2431 16.6419 13.7027 16.2253 13.2926 15.6719C12.8824 15.1185 12.6383 14.5163 12.5602 13.8652C12.482 13.2142 12.443 12.0749 12.443 10.4473V7.74219C12.443 6.15365 12.4788 5.0306 12.5504 4.37305C12.6285 3.70898 12.8629 3.10352 13.2535 2.55664C13.6507 2.00977 14.1845 1.58984 14.8551 1.29688C15.5257 1.00391 16.3069 0.857422 17.1988 0.857422C18.0452 0.857422 18.8036 0.997396 19.4742 1.27734C20.1513 1.55078 20.6949 1.96419 21.1051 2.51758C21.5152 3.07096 21.7594 3.67318 21.8375 4.32422C21.9156 4.97526 21.9547 6.11458 21.9547 7.74219V10.4473ZM17.8434 5.25195C17.8434 4.51628 17.801 4.04753 17.7164 3.8457C17.6383 3.63737 17.4723 3.5332 17.2184 3.5332C17.0035 3.5332 16.8375 3.61784 16.7203 3.78711C16.6096 3.94987 16.5543 4.43815 16.5543 5.25195V12.6348C16.5543 13.5527 16.5901 14.1191 16.6617 14.334C16.7398 14.5488 16.9156 14.6562 17.1891 14.6562C17.469 14.6562 17.648 14.5326 17.7262 14.2852C17.8043 14.0378 17.8434 13.4486 17.8434 12.5176V5.25195ZM26.9074 13.7773V17H23.9289V13.7773H26.9074Z" fill="white"/>
<rect y="23" width="28" height="6" rx="1" fill="white"/>
<path d="M53.3594 0.0546875V6.125H41.6172V12.5703C43.0859 10.8359 44.9766 9.96875 47.2891 9.96875C49.8984 9.96875 51.8672 10.7031 53.1953 12.1719C54.5391 13.625 55.2109 16.4297 55.2109 20.5859V26C55.2109 28.6875 55.0781 30.6641 54.8125 31.9297C54.5625 33.1797 54.0156 34.3438 53.1719 35.4219C52.3281 36.4844 51.1484 37.3047 49.6328 37.8828C48.1328 38.4453 46.2969 38.7266 44.125 38.7266C41.6875 38.7266 39.5391 38.3047 37.6797 37.4609C35.8203 36.6016 34.5 35.3281 33.7188 33.6406C32.9375 31.9531 32.5469 29.3438 32.5469 25.8125V23.75H42.0156V26.1172C42.0156 28.5703 42.1016 30.3125 42.2734 31.3438C42.4453 32.375 43.0391 32.8906 44.0547 32.8906C44.5234 32.8906 44.8984 32.7422 45.1797 32.4453C45.4766 32.1484 45.6328 31.8281 45.6484 31.4844C45.6797 31.1406 45.7109 29.6484 45.7422 27.0078V19.4844C45.7422 18.0625 45.5938 17.0938 45.2969 16.5781C45 16.0625 44.5078 15.8047 43.8203 15.8047C43.3828 15.8047 43.0156 15.9375 42.7188 16.2031C42.4219 16.4688 42.2266 16.7578 42.1328 17.0703C42.0547 17.3672 42.0156 18.0703 42.0156 19.1797H32.6406L33.0391 0.0546875H53.3594Z" fill="white"/>
</svg>
